<svg xmlns="http://www.w3.org/2000/svg" width="20" height="20" fill="none"><g clip-path="url(#a)"><path fill="#fff" d="M16.7 20H3.3C1.5 20 0 18.48 0 16.66v-7.3c0-.92.4-1.82 1.1-2.44L7.8.84c1.3-1.12 3.1-1.12 4.4 0l6.7 6.08c.7.6 1.1 1.52 1.1 2.44v7.3c-.1 1.92-1.5 3.34-3.3 3.34ZM10 2.06c-.3 0-.6.1-.9.3L2.4 8.44c-.3.2-.4.6-.4 1.02v7.3c0 .7.6 1.32 1.3 1.32h13.3c.7 0 1.3-.6 1.3-1.32v-7.3c0-.4-.2-.7-.4-1.02l-6.7-6.08c-.2-.2-.5-.3-.8-.3Z"/></g><defs><clipPath id="a"><path fill="#fff" d="M0 0h20v20H0z"/></clipPath></defs></svg>