<svg xmlns="http://www.w3.org/2000/svg" width="20" height="20" fill="none"><g fill="#fff" clip-path="url(#a)"><path d="M16.02.82H3.86C1.66.82 0 2.6 0 4.7v6.74c0 2.1 1.76 3.86 3.86 3.86h12.26c2.1 0 3.86-1.76 3.86-3.86V4.7c-.1-2.1-1.74-3.88-3.96-3.88Zm1.78 10.62c0 .88-.88 1.66-1.76 1.66H3.86c-.88 0-1.66-.78-1.66-1.66V4.7c0-.88.78-1.66 1.66-1.66h12.26c.88 0 1.66.78 1.66 1.66v6.74h.02ZM10.82 17.18H9.06c-.56 0-1 .44-1 1s.44 1 1 1h1.76c.56 0 1-.44 1-1s-.44-1-1-1Z"/></g><defs><clipPath id="a"><path fill="#fff" d="M0 0h20v20H0z"/></clipPath></defs></svg>