<svg xmlns="http://www.w3.org/2000/svg" width="20" height="20" fill="none"><g clip-path="url(#a)"><path fill="#fff" d="M4.84 19.62c-.4 0-.7-.1-1-.3-.5-.4-.8-1-.7-1.68l.9-4.86L.58 9.4c-.5-.5-.7-1.2-.5-1.78.2-.6.7-1.1 1.38-1.2l4.86-.7 2.2-4.36c.3-.6.9-1 1.58-1 .7 0 1.28.4 1.58 1l2.18 4.36 4.86.7c.4.1 1 .6 1.2 1.2.2.6 0 1.28-.4 1.78l-3.56 3.38.8 4.76c.1.7-.2 1.28-.7 1.68-.5.4-1.2.4-1.78.1L10 17.14l-4.26 2.28c-.3.1-.6.2-.9.2ZM10 15.16c.3 0 .6.1.8.2l3.96 2.08-.7-4.46c-.1-.6.1-1.1.5-1.48l3.18-3.18-4.46-.6c-.6-.1-1.1-.4-1.28-1l-2-4.06-1.98 4.06c-.3.5-.7.9-1.28 1l-4.46.7 3.18 3.18c.4.4.6 1 .5 1.48l-.8 4.46 3.68-1.94c.14-.08.28-.18.42-.26.24-.18.5-.18.74-.18Z"/></g><defs><clipPath id="a"><path fill="#fff" d="M0 0h20v20H0z"/></clipPath></defs></svg>