<svg xmlns="http://www.w3.org/2000/svg" width="20" height="20" fill="none"><g fill="#fff" clip-path="url(#a)"><path d="M18.92 9.94 10.06 1.1C9.36.4 8.46 0 7.56 0H3.02C1.3 0 0 1.4 0 3.02v4.42c0 1 .4 1.9 1.1 2.62l8.86 8.84c.7.7 1.62 1.1 2.52 1.1.9 0 1.82-.4 2.52-1.1l4.02-4.02c1.32-1.22 1.32-3.52-.1-4.94Zm-1.4 3.72-4.02 4.02c-.6.6-1.62.6-2.32 0L2.32 8.84c-.2-.4-.4-.8-.4-1.3V3.12c0-.6.5-1.1 1.1-1.1h4.44c.4 0 .8.2 1.1.5l8.86 8.84c.8.6.8 1.6.1 2.3Z"/><path d="M5.24 6.62a1.3 1.3 0 1 0 0-2.6 1.3 1.3 0 0 0 0 2.6Z"/></g><defs><clipPath id="a"><path fill="#fff" d="M0 0h20v20H0z"/></clipPath></defs></svg>