<svg xmlns="http://www.w3.org/2000/svg" width="20" height="20" fill="none"><path fill="#fff" d="M14.62 7.18V4.62c0-1.22-.52-2.46-1.34-3.28C12.36.42 11.22 0 10 0 7.44 0 5.28 2.06 5.28 4.72c0 .62.4 1.02 1.02 1.02s1.02-.4 1.02-1.02c0-1.44 1.12-2.66 2.66-2.66.72 0 1.34.3 1.84.72.52.52.82 1.12.82 1.84v2.26H6.92c-2.86 0-5.22 2.36-5.22 5.22v2.66c0 2.86 2.36 5.22 5.22 5.22h6.14c2.86 0 5.22-2.36 5.22-5.22V12.1c.02-2.26-1.52-4.2-3.66-4.92Zm1.64 7.58c0 1.74-1.44 3.18-3.18 3.18H6.92c-1.74 0-3.18-1.44-3.18-3.18V12.1c0-1.74 1.44-3.18 3.18-3.18h6.14c1.74 0 3.18 1.44 3.18 3.18v2.66h.02Z"/></svg>